<?xml version="1.0" encoding="UTF-8" standalone="no"?><!DOCTYPE svg PUBLIC "-//W3C//DTD SVG 1.1//EN" "http://www.w3.org/Graphics/SVG/1.1/DTD/svg11.dtd"><svg width="100%" height="100%" viewBox="0 0 45 45" version="1.1" xmlns="http://www.w3.org/2000/svg" xmlns:xlink="http://www.w3.org/1999/xlink" xml:space="preserve" style="fill-rule:evenodd;clip-rule:evenodd;stroke-linejoin:round;stroke-miterlimit:1.41421;"><g><path d="M15.533,29.455c-0.192,0 -0.384,-0.073 -0.53,-0.22c-0.293,-0.293 -0.293,-0.769 0,-1.062l13.171,-13.171c0.293,-0.293 0.768,-0.293 1.061,0c0.293,0.293 0.293,0.768 0,1.061l-13.172,13.172c-0.146,0.147 -0.338,0.22 -0.53,0.22Z" style="fill:#fff;fill-rule:nonzero;"/><path d="M28.704,29.455c-0.192,0 -0.384,-0.073 -0.53,-0.22l-13.172,-13.171c-0.293,-0.293 -0.293,-0.768 0,-1.061c0.293,-0.293 0.768,-0.293 1.061,0l13.171,13.171c0.293,0.293 0.293,0.769 0,1.062c-0.146,0.146 -0.338,0.219 -0.53,0.219Z" style="fill:#fff;fill-rule:nonzero;"/><path d="M22.092,44.213c-12.197,0 -22.119,-9.922 -22.119,-22.117c0,-12.196 9.922,-22.119 22.119,-22.119c12.197,0 22.119,9.922 22.119,22.119c0,12.197 -9.924,22.117 -22.119,22.117Zm0,-42.736c-11.369,0 -20.619,9.25 -20.619,20.619c0,11.369 9.25,20.619 20.619,20.619c11.369,0 20.619,-9.25 20.619,-20.619c0,-11.369 -9.25,-20.619 -20.619,-20.619Z" style="fill:#fff;fill-rule:nonzero;"/></g></svg>