<?xml version="1.0" encoding="UTF-8" standalone="no"?><!DOCTYPE svg PUBLIC "-//W3C//DTD SVG 1.1//EN" "http://www.w3.org/Graphics/SVG/1.1/DTD/svg11.dtd"><svg width="100%" height="100%" viewBox="0 0 1280 720" version="1.1" xmlns="http://www.w3.org/2000/svg" xmlns:xlink="http://www.w3.org/1999/xlink" xml:space="preserve" style="fill-rule:evenodd;clip-rule:evenodd;stroke-linecap:round;stroke-linejoin:round;stroke-miterlimit:1.5;"><path d="M691.459,331.324l27.477,0l0,46.196l16.134,0l-29.937,37.155l-29.705,-37.155l16.031,0l0,-46.196Z" style="fill:none;stroke:#fff;stroke-width:2px;"/><text x="551.268px" y="318.255px" style="font-family:'ArialMT', 'Arial', sans-serif;font-size:30px;fill:#fff;">DROP<tspan x="637.401px 645.194px 665.204px " y="318.255px 318.255px 318.255px "> YO</tspan>UR SECRET</text><path d="M551.462,464.719c0,0 20.256,14.882 28.389,0c8.132,-14.883 6.855,-21.305 0,-20.21c-6.856,1.096 -25.217,-6.734 -20.459,0" style="fill:none;stroke:#fff;stroke-width:0.75px;"/><path d="M361.665,463.488l-7.65,106.051l0,54.868c0,0 13.957,0 20.935,0" style="fill:none;stroke:#fff;stroke-width:0.75px;"/><path d="M446.214,390.973c9.266,-3.831 12.08,-56.396 12.08,-56.396l-0.374,-0.123c-6.1,-5.284 -12.626,-10.064 -19.153,-14.811c-3.589,-2.61 -9.492,-4.197 -11.719,1.086c-1.25,2.964 -1.526,6.26 -2.569,9.304c-0.444,1.298 -1.92,3.331 -3.665,3.083c-1.291,-0.183 -2.713,-2.734 -3.05,-3.704c-0.793,-2.281 -1.603,-4.58 -1.999,-6.962c-0.411,-2.476 1.433,-10.304 -4.192,-8.552c-1.287,0.401 -2.343,1.342 -3.442,2.122c-2.552,1.811 -5.074,3.668 -7.5,5.645l-1.932,0.523c0,0 -14.7,46.326 0,65.806" style="fill:none;stroke:#fff;stroke-width:0.7px;"/><path d="M570.203,415.891c0,0 -45.1,-2.592 -76.423,-29.818c0,0 -0.707,-31.247 -16.982,-33.548c0,0 -15.295,-3.608 -10.83,-18.624c0,0 10.24,-27.465 0,-39.934c0,0 18.382,-5.195 27.812,-20.073c0,0 13.922,-2.967 -16.982,-10.189c0,0 2.116,-52.695 -4.878,-50.375c0,0 8.175,-7.467 14.154,0c0,0 1.493,-39.812 7.706,-24.097l0,-7.012l26.585,7.012c0,0 -19.329,-39.59 -30.317,-32.908l-3.974,9.361c0,0 -24.867,-1.302 -34.059,7.545c0,0 -0.053,19.36 -3.757,16.002c0,0 6.437,10.886 -21.039,0c0,0 -22.018,-6.645 -21.39,37.412c0,0 -5.225,50.179 -7.646,28.104c0,0 -26.849,0.388 -29.356,5.007c0,0 4.893,8.353 10.3,14.138c0,0 1.2,-8.211 5.525,0c0,0 27.213,16.694 48.545,15.206c0,0 38.074,-2.772 32.771,4.867c0.726,0.271 1.564,0.584 1.963,1.249c0.826,1.379 1.242,2.992 1.525,4.574c1.289,7.204 1.734,13.939 -0.541,21.101c-0.875,2.754 -2.485,5.289 -4.342,7.502c-1.837,2.19 -4.231,3.868 -6.572,5.508c0,0 -36.636,44.201 -59.818,-12.9c0,0 -13.251,-23.98 -3.381,-41.704c-1.085,2.89 -2.177,5.797 -2.867,8.806c-0.623,2.713 -1.12,5.502 -1.054,8.284c0.103,4.352 2.18,8.516 2.227,12.869c0.055,5.15 -2.871,12.115 -4.868,15.978c-2.668,5.159 -5.294,10.475 -9.113,14.85c-1.44,1.65 -4.067,1.628 -6.061,2.532c-8.513,3.859 -12.614,5.024 -19.07,11.015c-9.45,8.77 -15.441,20.228 -19.234,32.442c0,0 -34.974,37.52 18.871,74.363c0,0 24.794,12.315 31.019,6.117l0,-50.662c0,0 -30.192,-3.528 -35.421,-10.72l14.486,6.817l0,-22.568l57.962,22.568l36.322,-13.537l0,50.707l-36.322,11.278l-11.718,0" style="fill:none;stroke:#fff;stroke-width:0.75px;"/><path d="M385.898,458.875c2.01,0.942 7.963,1.474 9.241,2.752c0.617,0.617 2.646,-0.106 3.244,0.492c0.986,0.986 4.184,-0.142 5.21,0.884c1.213,1.214 5.803,-0.405 6.292,-0.902c1.272,-1.293 -0.516,-2.654 -1.402,-3.096c-2.247,-1.124 -6.199,-1.099 -8.908,-1.099c-0.524,0 1.049,0 1.573,0c1.153,0 2.307,0 3.46,0c2.794,0 9.009,0.952 10.734,-0.801c0.185,-0.188 3.796,-0.555 2.752,-1.598c-2.938,-2.939 -8.789,-2.197 -12.586,-4.096c-0.777,-0.388 -3.685,-1.497 -2.996,-2.896c1.065,-2.166 5.672,-0.834 7.766,-1.898c4.108,-2.087 7.706,-1.178 9.83,-5.494c0.775,-1.574 -2.521,-2.127 -3.596,-1.598c-2.649,1.303 -9.895,1.676 -11.987,-0.416c-0.354,-0.354 4.379,-2.463 4.95,-2.644c4.115,-1.31 8.859,-1.934 12.345,-3.706c0.463,-0.235 2.225,-3.446 1.475,-4.195c-1.087,-1.087 -5.861,-0.19 -7.092,0.192c-3.121,0.967 -8.88,0.632 -11.557,-0.706c-0.99,-0.495 -3.227,-0.105 -3.931,-0.809c-1.865,-1.865 0.895,-7.41 1.86,-8.39c0.508,-0.516 0.204,-1.906 0.688,-2.398c0.188,-0.19 1.064,-2.821 0.688,-3.196c-0.403,-0.403 -2.954,-1.133 -3.695,-0.403c-4.081,4.016 -6.951,8.258 -14.784,8.258" style="fill:none;stroke:#fff;stroke-width:0.75px;"/><path d="M455.642,399.016l0,-13.47l-37.46,22.155l37.46,-18.138l-37.46,18.138l37.46,-13.361l0,4.676Z" style="fill:none;stroke:#fff;stroke-width:0.75px;"/><path d="M389.697,379.249l-23.924,10.314l51.237,17.856l-27.313,-28.17Z" style="fill:none;stroke:#fff;stroke-width:0.75px;"/><path d="M384.363,381.548l28.752,24.514l-35.003,-20.994l-6.682,3.686l41.685,17.308" style="fill:none;stroke:#fff;stroke-width:0.75px;"/><path d="M374.95,624.407c-0.131,1.339 -0.394,4.016 -0.394,4.016c0,0 25.023,25.212 -43.429,35.239c0,0 13.006,21.163 64.31,0l0,-26.976c0,0 33.883,8.331 35.635,-8.263l-8.364,35.239c0,0 42.804,25.206 67.901,0c0,0 -59.093,3.334 -43.577,-15.505l0,-19.734l35.716,-10.754l0,-170.152c0,0 65.844,93.438 83.782,56.798c0,0 20.046,-37.967 19.198,-56.798c0,0 -5.086,-37.007 -19.198,-30.75c-10.344,4.586 -22.408,40.433 -21.307,65.885c0.401,9.272 2.549,17.164 7.163,21.663c17.28,16.853 8.694,6.602 8.694,6.602" style="fill:none;stroke:#fff;stroke-width:0.75px;"/><path d="M597.487,367.432l13.546,-14.134l-8.807,-18.39l15.257,4.677l12.75,-11.188l-1.045,17.053l16.507,7.848l-23.422,5.031l0,18.818l-7.236,-9.715l-32.879,64.478l-13.017,25.807l-6.785,-2.254l46.655,-90.466l-11.524,2.435Z" style="fill:none;stroke:#fff;stroke-width:0.75px;"/><ellipse cx="713.05" cy="461.986" rx="52.779" ry="13.681" style="fill:none;stroke:#fff;stroke-width:0.7px;"/><path d="M660.272,461.986c0,0 -40.932,63.681 -8.735,95.182c32.197,31.501 90.55,33.693 124.017,0c33.467,-33.694 -9.836,-95.182 -9.836,-95.182" style="fill:none;stroke:#fff;stroke-width:0.7px;"/><path d="M411.744,299.694c1.345,0.267 -1.193,-0.854 -0.304,-1.757c2.765,-2.81 5.226,3.681 3.109,5.764c-3.335,3.282 -7.14,-1.876 -4.293,-4.768c3.87,-3.933 7.948,3.608 4.787,6.719c-5.209,5.126 -10.908,-3.956 -6.496,-8.44c4.458,-4.529 12.616,4.488 8.643,8.397c-0.904,0.889 -7.3,3.408 -8.91,1.798c-1.201,-1.201 -1.442,-2.517 -2.319,-4.272c-0.867,-1.733 -1.458,-5.489 -0.014,-6.957c4.235,-4.304 9.167,-0.555 11.171,3.454c0.722,1.444 2.515,4.35 0.832,6.006c-3.394,3.34 -10.444,3.888 -12.716,-0.655c-1.084,-2.168 -3.842,-6.994 -1.476,-9.398c3.377,-3.431 9.998,-5.4 12.973,0.548c1.065,2.131 4.663,7.741 2.154,10.211c-3.952,3.889 -12.25,3.652 -15.013,-1.874c-1.4,-2.8 -2.968,-7.874 -0.507,-10.375c5.147,-5.23 13.018,-1.239 15.301,3.327c0.531,1.061 2.324,6.223 0.957,7.567c-3.389,3.336 -12.974,5.124 -15.745,-0.418c-1.423,-2.846 -4.249,-8.659 -0.998,-11.962c7.295,-7.412 15.759,4.949 15.759,11.144" style="fill:none;stroke:#fff;stroke-width:0.7px;"/><path d="M446.691,303.509c1.345,0.267 -1.192,-0.855 -0.304,-1.757c2.766,-2.81 5.226,3.681 3.11,5.764c-3.336,3.282 -7.14,-1.876 -4.294,-4.768c3.87,-3.933 7.948,3.608 4.788,6.719c-5.209,5.126 -10.909,-3.956 -6.497,-8.44c4.458,-4.529 12.616,4.487 8.643,8.397c-0.903,0.889 -7.3,3.408 -8.91,1.798c-1.201,-1.201 -1.442,-2.517 -2.319,-4.272c-0.867,-1.733 -1.458,-5.49 -0.014,-6.957c4.236,-4.304 9.167,-0.555 11.172,3.454c0.722,1.444 2.514,4.35 0.831,6.006c-3.394,3.34 -10.444,3.888 -12.716,-0.655c-1.084,-2.168 -3.842,-6.994 -1.476,-9.398c3.377,-3.432 9.999,-5.401 12.973,0.548c1.065,2.131 4.664,7.741 2.155,10.21c-3.952,3.89 -12.25,3.653 -15.014,-1.873c-1.399,-2.8 -2.968,-7.874 -0.507,-10.375c5.147,-5.231 13.019,-1.239 15.302,3.326c0.53,1.062 2.323,6.223 0.957,7.568c-3.39,3.336 -12.975,5.124 -15.746,-0.418c-1.422,-2.846 -4.248,-8.659 -0.997,-11.962c7.294,-7.412 15.759,4.949 15.759,11.144" style="fill:none;stroke:#fff;stroke-width:0.7px;"/><path d="M420.848,303.699c0.129,-0.003 8.955,-0.728 10.16,0.477c0.924,0.924 4.423,2.642 5.766,2.642" style="fill:none;stroke:#fff;stroke-width:0.7px;"/><path d="M455.074,308.459c2.138,-0.252 4.28,-0.471 6.413,-0.755c3.272,-0.436 13.775,-3.659 13.775,1.121" style="fill:none;stroke:#fff;stroke-width:0.7px;"/><path d="M403.031,302.122c-3.017,-2.059 -8.298,-6.248 -11.882,-6.248" style="fill:none;stroke:#fff;stroke-width:0.7px;"/><path d="M420.813,315.57c0.598,1.026 0.732,3.003 1.92,3.003" style="fill:none;stroke:#fff;stroke-width:0.7px;"/></svg>