<?xml version="1.0" encoding="UTF-8" standalone="no"?><!DOCTYPE svg PUBLIC "-//W3C//DTD SVG 1.1//EN" "http://www.w3.org/Graphics/SVG/1.1/DTD/svg11.dtd"><svg width="100%" height="100%" viewBox="0 0 487 487" version="1.1" xmlns="http://www.w3.org/2000/svg" xmlns:xlink="http://www.w3.org/1999/xlink" xml:space="preserve" style="fill-rule:evenodd;clip-rule:evenodd;stroke-linejoin:round;stroke-miterlimit:1.41421;"><g><path d="M395.5,135.8c-5.2,-30.9 -20.5,-59.1 -43.9,-80.5c-26,-23.8 -59.8,-36.9 -95,-36.9c-27.2,0 -53.7,7.8 -76.4,22.5c-18.9,12.2 -34.6,28.7 -45.7,48.1c-4.8,-0.9 -9.8,-1.4 -14.8,-1.4c-42.5,0 -77.1,34.6 -77.1,77.1c0,5.5 0.6,10.8 1.6,16c-27.5,20 -44.2,52.2 -44.2,86.5c0,27.7 10.3,54.6 29.1,75.9c19.3,21.8 44.8,34.7 72,36.2l86.8,0c7.5,0 13.5,-6 13.5,-13.5c0,-7.5 -6,-13.5 -13.5,-13.5l-85.6,0c-40.9,-2.5 -75.3,-41.4 -75.3,-85.2c0,-28.3 15.2,-54.7 39.7,-69c5.7,-3.3 8.1,-10.2 5.9,-16.4c-2,-5.4 -3,-11.1 -3,-17.2c0,-27.6 22.5,-50.1 50.1,-50.1c5.9,0 11.7,1 17.1,3c6.6,2.4 13.9,-0.6 16.9,-6.9c18.7,-39.7 59.1,-65.3 103,-65.3c59,0 107.7,44.2 113.3,102.8c0.6,6.1 5.2,11 11.2,12c44.5,7.6 78.1,48.7 78.1,95.6c0,49.7 -39.1,92.9 -87.3,96.6l-73.7,0c-7.5,0 -13.5,6 -13.5,13.5c0,7.5 6,13.5 13.5,13.5l75.2,0c30.5,-2.2 59,-16.2 80.2,-39.6c21.1,-23.2 32.6,-53 32.6,-84c-0.1,-56.1 -38.4,-106 -90.8,-119.8Z" style="fill:#fff;fill-rule:nonzero;"/><path d="M324.2,280c5.3,-5.3 5.3,-13.8 0,-19.1l-71.5,-71.5c-2.5,-2.5 -6,-4 -9.5,-4c-3.5,0 -7,1.4 -9.5,4l-71.5,71.5c-5.3,5.3 -5.3,13.8 0,19.1c2.6,2.6 6.1,4 9.5,4c3.4,0 6.9,-1.3 9.5,-4l48.5,-48.5l0,222.9c0,7.5 6,13.5 13.5,13.5c7.5,0 13.5,-6 13.5,-13.5l0,-222.9l48.5,48.5c5.2,5.3 13.7,5.3 19,0Z" style="fill:#fff;fill-rule:nonzero;"/></g></svg>